<svg width="24" height="24" viewBox="0 0 24 24" fill="none" xmlns="http://www.w3.org/2000/svg">
<path d="M6 10H14" stroke="white" stroke-width="1.5" stroke-linecap="round" stroke-linejoin="round"/>
<path d="M18 15V16.8999H16" stroke="white" stroke-width="1.5" stroke-linecap="round" stroke-linejoin="round"/>
<path d="M17.5 21.0001C18.39 21.0001 19.2601 20.7358 20.0001 20.2413C20.7401 19.7468 21.3169 19.044 21.6575 18.2218C21.9981 17.3995 22.0872 16.4951 21.9136 15.6222C21.7399 14.7493 21.3113 13.9473 20.682 13.318C20.0527 12.6886 19.2508 12.2602 18.3779 12.0865C17.505 11.9129 16.6002 12.0018 15.778 12.3424C14.9557 12.683 14.2529 13.2596 13.7584 13.9996C13.264 14.7396 13 15.6101 13 16.5001C13 17.6936 13.4741 18.8378 14.318 19.6817C15.1619 20.5257 16.3065 21.0001 17.5 21.0001Z" stroke="white" stroke-width="1.5" stroke-linecap="round" stroke-linejoin="round"/>
<path d="M18 12V5C18 4.46957 17.7893 3.96052 17.4142 3.58545C17.0391 3.21038 16.5304 3 16 3H5C4.46957 3 3.96089 3.21038 3.58582 3.58545C3.21074 3.96052 3 4.46957 3 5V15C3 15.5304 3.21074 16.039 3.58582 16.4141C3.96089 16.7891 4.46957 17 5 17H13" stroke="white" stroke-width="1.5" stroke-linecap="round" stroke-linejoin="round"/>
<path d="M6 6.5H14" stroke="white" stroke-width="1.5" stroke-linecap="round" stroke-linejoin="round"/>
<path d="M6 13.5H10" stroke="white" stroke-width="1.5" stroke-linecap="round" stroke-linejoin="round"/>
</svg>
