<?xml version="1.0" encoding="iso-8859-1"?>
<!-- Uploaded to: SVG Repo, www.svgrepo.com, Generator: SVG Repo Mixer Tools -->
<svg version="1.1" id="Layer_1" xmlns="http://www.w3.org/2000/svg" xmlns:xlink="http://www.w3.org/1999/xlink" 
	 viewBox="0 0 512.001 512.001" xml:space="preserve">
<path style="fill:#00B4D7;" d="M232.991,17.275v189.829h-74.781v-63.507c-44.754,27.266-74.781,76.277-74.781,132.536
	c0,78.578,58.214,143.235,133.916,153.705l-60.975,60.975C69.966,457.68,8.646,374.156,8.646,276.134
	c0-75.472,36.47-142.2,92.499-184.078h-46.48v-74.78H232.991z"/>
<path style="fill:#0093C4;" d="M60.418,305.852c0,76.873,55.765,140.283,129.063,152.806l27.863-27.863
	c-75.701-10.469-133.916-75.127-133.916-153.705c0-29.964,8.582-57.827,23.306-81.49C78.202,223.695,60.418,262.61,60.418,305.852z"
	/>
<path d="M158.512,500.897l-5.241-2.009c-44.626-17.115-82.749-46.893-110.245-86.118C14.878,372.616,0,325.368,0,276.134
	c0-38.252,8.814-74.787,26.196-108.59c12.839-24.968,30.252-47.727,51.022-66.841h-31.2V8.629h195.618v207.122h-92.074v-55.787
	c-36.264,27.693-57.489,70.069-57.489,116.17c0,35.658,12.932,69.993,36.415,96.681c23.26,26.436,55.237,43.645,90.039,48.459
	l17.225,2.382L158.512,500.897z M63.311,83.411h63.842l-20.832,15.571c-27.017,20.194-49.406,46.637-64.747,76.469
	c-16.113,31.334-24.282,65.209-24.282,100.683c0,45.663,13.796,89.479,39.894,126.71c24.44,34.863,57.926,61.684,97.091,77.834
	l45.418-45.418c-32.46-7.944-61.906-25.695-84.19-51.021C89.243,354.391,74.78,315.999,74.78,276.134
	c0-28.628,7.527-56.798,21.766-81.463c13.767-23.847,33.533-44.06,57.162-58.457l13.144-8.009v70.253h57.489V25.921H63.311V83.411z"
	/>
<g>
	<polygon style="fill:#FFFFFF;" points="207.122,132.323 189.829,132.323 189.829,60.435 123.694,60.435 123.694,43.143 
		207.122,43.143 	"/>
	<rect x="189.833" y="149.577" style="fill:#FFFFFF;" width="17.292" height="23.01"/>
</g>
<path style="fill:#00B4D7;" d="M279.009,494.726V304.896h74.782v63.507c44.754-27.266,74.782-76.277,74.782-132.536
	c0-78.578-58.214-143.235-133.916-153.705l60.975-60.975c86.402,33.134,147.722,116.66,147.722,214.68
	c0,75.472-36.47,142.2-92.499,184.078h46.48v74.782H279.009V494.726z"/>
<path style="fill:#0093C4;" d="M451.582,206.149c0-76.873-55.765-140.283-129.063-152.806l-27.863,27.863
	c75.703,10.469,133.917,75.127,133.917,153.705c0,29.964-8.581,57.827-23.306,81.49
	C433.798,288.306,451.582,249.392,451.582,206.149z"/>
<path d="M465.981,503.372H270.363V296.25h92.074v55.787c36.264-27.693,57.489-70.069,57.489-116.17
	c0-35.658-12.932-69.993-36.415-96.681c-23.259-26.436-55.237-43.646-90.039-48.459l-17.225-2.382l77.24-77.24l5.241,2.009
	c44.628,17.115,82.749,46.893,110.246,86.118c28.148,40.155,43.026,87.402,43.026,136.635c0,38.252-8.814,74.787-26.196,108.59
	c-12.839,24.967-30.252,47.727-51.023,66.841h31.2V503.372z M287.656,486.08h161.033V428.59h-63.845l20.834-15.571
	c27.018-20.194,49.407-46.637,64.747-76.469c16.113-31.333,24.282-65.207,24.282-100.683c0-45.663-13.796-89.479-39.894-126.71
	c-24.438-34.863-57.925-61.684-97.092-77.834l-45.417,45.418c32.458,7.944,61.906,25.695,84.188,51.021
	c26.262,29.847,40.725,68.239,40.725,108.105c0,28.628-7.527,56.798-21.766,81.463c-13.767,23.847-33.534,44.06-57.163,58.457
	l-13.144,8.009v-70.252h-57.489V486.08H287.656z"/>
<g>
	<polygon style="fill:#FFFFFF;" points="376.801,468.858 304.878,468.858 304.878,379.678 322.171,379.678 322.171,451.566 
		376.801,451.566 	"/>
	<rect x="304.883" y="339.41" style="fill:#FFFFFF;" width="17.292" height="23.01"/>
</g>
</svg>